<svg xmlns="http://www.w3.org/2000/svg" version="1.1" xmlns:xlink="http://www.w3.org/1999/xlink" xmlns:svgjs="http://svgjs.dev/svgjs" width="1000" height="1125" viewBox="0 0 1000 1125"><g transform="matrix(1,0,0,1,1.7053025658242404e-13,0)"><svg viewBox="0 0 320 360" data-background-color="#331e6d" preserveAspectRatio="xMidYMid meet" height="1125" width="1000" xmlns="http://www.w3.org/2000/svg" xmlns:xlink="http://www.w3.org/1999/xlink"><g id="tight-bounds" transform="matrix(1,0,0,1,0,0)"><svg viewBox="0 0 320 360" height="360" width="320"><g><svg></svg></g><g><svg viewBox="0 0 320 360" height="360" width="320"><g><path xmlns="http://www.w3.org/2000/svg" d="M20.961 227.22l3.726 4.658-1.863-6.056c-0.466-2.795-3.726 0.466-1.863 1.398M25.153 224.425c1.397 2.329 2.795 4.658 2.795 6.987 0 3.261 2.795 4.658 5.123 5.589-3.261-3.726-5.124-13.974-7.918-12.576M204.017 26.929c7.918 0 15.371-0.932 23.756 0.931 20.495 5.124 37.729 15.371 49.374 29.811l32.606 52.169c1.397 13.042 4.192 27.482 3.726 43.319 3.261 0 2.795-4.658 6.521-5.59-3.726 9.316-5.59 20.961-6.521 34.469-2.329-7.453 0-18.632 0.466-24.687-3.261 5.124-5.124 1.397-5.124-0.932 0.466-3.726-1.397-3.261-2.795-4.658-5.124-4.658-8.384-9.782-12.11-17.7 2.329-6.055 2.795-14.905-4.658-19.563-2.329-1.397-5.124-3.726-6.521-7.453-1.863-5.124-5.124-11.179-4.193-19.097 0.466-2.329-6.987 5.124-11.179 1.863-18.166-12.576-36.332-27.016-58.224-39.127-11.645 0-20.029-4.192-24.221-9.316-3.726-4.658-0.932-10.713 4.658-11.179 3.261 0 6.987-0.932 9.782 0.932 0.466-1.863 2.329-4.192 4.657-4.192M157.904 16.215l0.932 0.466c4.658 0.932 6.987 7.453 12.11 5.124 0 3.261 0.466 6.521-0.466 8.85-1.397 3.726-5.59 3.726-8.85 3.726-31.208-1.863-49.374 11.179-68.471 22.358-5.124 3.261-10.713 5.59-14.906 9.782-20.029 18.632-41.921 35.866-47.045 70.335l-4.192 38.195c-0.466 4.192-5.124 8.384-4.192 13.508l3.26 22.824c-3.261-3.261-5.124 0.932-4.192 2.795 0.466 1.397 2.329 6.055 5.124 1.863 3.726 6.987 7.453 20.495 12.576 26.55 15.837 18.632 36.332 35.4 53.101 52.169 4.192-0.932 7.453-0.932 8.384-3.727 1.397 2.795-1.397 5.59-3.726 6.056 7.453 4.658 15.837 8.85 27.016 9.781 14.44 0.932 27.948 3.261 40.524 6.522 6.521-1.863 13.042-2.795 20.029-3.261 2.329 0 3.726-3.726 6.521-4.658l0.466-4.658c2.795 4.192 2.329-1.397 0.466-4.192 3.261 2.795 4.192 5.124 5.589 6.987 0-1.397 3.726-6.521 3.727-0.466l0.931-6.055c1.397-0.932 1.863 5.124 3.261 0.931 1.397-4.192 4.192-0.932 6.987-2.329-0.932 1.863-0.466 5.59 2.794 3.261l3.727-3.261c2.329 5.59 6.055 3.261 7.918 2.329 20.495-13.042 40.99-28.413 60.553-43.784l-0.466 6.055 2.329-7.453c2.329 2.329 4.192 0.466 5.124-0.931 2.795-4.658 6.521-9.316 12.577-13.508-7.453 20.029-16.303 35.866-27.482 48.908l-4.658 5.59c0 3.261-0.932 7.453-4.658 7.918-1.863 0.466-5.59-0.932-8.384 1.863-1.397 1.863 3.261 5.59-0.466 2.795-3.261-2.329-6.521 0-10.248 0.932-2.795 0.932 1.863 3.726 2.795 5.589 0.932 1.863 1.863 3.726 1.398 6.056l-5.124-5.59c-6.055 3.261-9.782 9.316-14.906 13.974-2.329 1.863-1.397 5.124-1.397 7.918-3.261 0-6.987-0.932-8.85 0.932-1.397 1.863-0.932 4.658-0.932 7.453-4.658-0.466-5.124-7.453-9.315-6.056-4.192 0.932-8.85 1.397-12.577 3.727 2.795 5.59-4.658 2.329-3.726 3.26-6.987-4.192-13.042-7.453-20.495-4.658-15.837-5.124-35.4-2.795-49.84-0.931 0-2.329 0.466-4.658-0.466-5.124-0.932 2.329-3.726 1.397-3.26 1.397-8.85-6.055-17.7-9.782-27.016-14.905-8.384 0.932-16.303-3.261-18.632-5.59-6.521-6.055-13.974-2.795-20.029-4.192-13.042-3.261-17.7-16.769-19.098-26.084-0.932-4.658-4.658-6.521-6.055-6.056-6.055-19.563-15.371-37.263-22.824-55.429-1.863-4.658-1.397-9.316-1.397-14.44 2.329 0.932 4.658 0.466 4.192-2.794-2.329-15.371-7.918-27.016-13.974-38.195 3.261-15.837 3.726-34.469 11.179-48.443 6.521-12.576 18.632-19.098 27.016-29.811 2.795-3.726 2.795-8.85 5.59-12.11 9.316-9.316 18.632-19.098 28.879-27.482 4.658-3.726 10.247 0 17.234-1.397 2.329-8.384 11.645-15.837 20.495-13.508 3.726 0.932 11.179-8.85 13.508-9.782 3.726-1.397 1.863 3.726 1.863 6.987 8.85-6.987 20.961-10.713 32.14-14.906" fill="#ffcf31" fill-rule="nonzero" stroke="none" stroke-width="1" stroke-linecap="butt" stroke-linejoin="miter" stroke-miterlimit="10" stroke-dasharray="" stroke-dashoffset="0" font-family="none" font-weight="none" font-size="none" text-anchor="none" style="mix-blend-mode: normal" data-fill-palette-color="tertiary"></path></g><g transform="matrix(1,0,0,1,64,124.23189966451613)"><svg viewBox="0 0 192 111.53620067096773" height="111.53620067096773" width="192"><g><svg viewBox="0 0 192 111.53620067096773" height="111.53620067096773" width="192"><g><svg viewBox="0 0 192 111.53620067096773" height="111.53620067096773" width="192"><g transform="matrix(1,0,0,1,0,67.41454168479262)"><svg viewBox="0 0 192 44.12165898617511" height="44.12165898617511" width="192"><g id="textblocktransform"><svg viewBox="0 0 192 44.12165898617511" height="44.12165898617511" width="192" id="textblock"><g><svg viewBox="0 0 192 44.12165898617511" height="44.12165898617511" width="192"><g transform="matrix(1,0,0,1,0,0)"><svg width="192" viewBox="2.0999999046325684 -37.099998474121094 162.739990234375 37.39999771118164" height="44.12165898617511" data-palette-color="#ffcf31"><path d="M24.75-37.1L29.55-37.1 29.55 0 24.95 0 24.95-4.2Q23.35-2 20.9-0.85 18.45 0.3 15.5 0.3L15.5 0.3Q11.65 0.3 8.6-1.4 5.55-3.1 3.83-6.18 2.1-9.25 2.1-13.25L2.1-13.25Q2.1-17.25 3.83-20.3 5.55-23.35 8.6-25.05 11.65-26.75 15.5-26.75L15.5-26.75Q18.35-26.75 20.75-25.68 23.15-24.6 24.75-22.5L24.75-22.5 24.75-37.1ZM15.9-3.9Q18.4-3.9 20.45-5.08 22.5-6.25 23.65-8.38 24.8-10.5 24.8-13.25L24.8-13.25Q24.8-16 23.65-18.13 22.5-20.25 20.45-21.4 18.4-22.55 15.9-22.55L15.9-22.55Q13.35-22.55 11.33-21.4 9.3-20.25 8.13-18.13 6.95-16 6.95-13.25L6.95-13.25Q6.95-10.5 8.13-8.38 9.3-6.25 11.33-5.08 13.35-3.9 15.9-3.9L15.9-3.9ZM36.95-11.65L36.95-15.8 50.4-15.8 50.4-11.65 36.95-11.65ZM69.34 0.3Q65.3 0.3 62.12-1.45 58.95-3.2 57.15-6.28 55.35-9.35 55.35-13.25L55.35-13.25Q55.35-17.15 57.15-20.23 58.95-23.3 62.12-25.03 65.3-26.75 69.34-26.75L69.34-26.75Q72.95-26.75 75.77-25.3 78.59-23.85 80.15-21.1L80.15-21.1 76.5-18.75Q75.25-20.65 73.4-21.6 71.55-22.55 69.3-22.55L69.3-22.55Q66.7-22.55 64.62-21.4 62.55-20.25 61.37-18.13 60.2-16 60.2-13.25L60.2-13.25Q60.2-10.45 61.37-8.33 62.55-6.2 64.62-5.05 66.7-3.9 69.3-3.9L69.3-3.9Q71.55-3.9 73.4-4.85 75.25-5.8 76.5-7.7L76.5-7.7 80.15-5.4Q78.59-2.65 75.77-1.18 72.95 0.3 69.34 0.3L69.34 0.3ZM100.14-26.75Q105.19-26.75 108.17-23.83 111.14-20.9 111.14-15.25L111.14-15.25 111.14 0 106.34 0 106.34-14.7Q106.34-18.55 104.49-20.5 102.64-22.45 99.19-22.45L99.19-22.45Q95.29-22.45 93.04-20.18 90.79-17.9 90.79-13.65L90.79-13.65 90.79 0 85.99 0 85.99-37.1 90.79-37.1 90.79-22.75Q92.29-24.65 94.72-25.7 97.14-26.75 100.14-26.75L100.14-26.75ZM129.69-26.75Q135.19-26.75 138.12-24.05 141.04-21.35 141.04-16L141.04-16 141.04 0 136.49 0 136.49-3.5Q135.29-1.65 133.06-0.68 130.84 0.3 127.79 0.3L127.79 0.3Q123.34 0.3 120.67-1.85 117.99-4 117.99-7.5L117.99-7.5Q117.99-11 120.54-13.13 123.09-15.25 128.64-15.25L128.64-15.25 136.24-15.25 136.24-16.2Q136.24-19.3 134.44-20.95 132.64-22.6 129.14-22.6L129.14-22.6Q126.79-22.6 124.54-21.83 122.29-21.05 120.74-19.75L120.74-19.75 118.74-23.35Q120.79-25 123.64-25.88 126.49-26.75 129.69-26.75L129.69-26.75ZM128.59-3.4Q131.34-3.4 133.34-4.63 135.34-5.85 136.24-8.1L136.24-8.1 136.24-11.8 128.84-11.8Q122.74-11.8 122.74-7.7L122.74-7.7Q122.74-5.7 124.29-4.55 125.84-3.4 128.59-3.4L128.59-3.4ZM163.34-5L164.84-1.55Q163.79-0.65 162.24-0.18 160.69 0.3 159.04 0.3L159.04 0.3Q155.04 0.3 152.84-1.85 150.64-4 150.64-8L150.64-8 150.64-22.55 146.14-22.55 146.14-26.5 150.64-26.5 150.64-32.3 155.44-32.3 155.44-26.5 163.04-26.5 163.04-22.55 155.44-22.55 155.44-8.2Q155.44-6.05 156.51-4.9 157.59-3.75 159.59-3.75L159.59-3.75Q161.79-3.75 163.34-5L163.34-5Z" opacity="1" transform="matrix(1,0,0,1,0,0)" fill="#ffcf31" class="wordmark-text-0" data-fill-palette-color="primary" id="text-0"></path></svg></g></svg></g></svg></g></svg></g><g transform="matrix(1,0,0,1,60.8627000686079,0)"><svg viewBox="0 0 70.2745998627842 60.976132718894014" height="60.976132718894014" width="70.2745998627842"><g><svg xmlns="http://www.w3.org/2000/svg" xmlns:xlink="http://www.w3.org/1999/xlink" version="1.1" x="0" y="0" viewBox="0.10899925231933594 7.868995666503906 99.82899475097656 86.62000274658203" enable-background="new 0 0 100 100" xml:space="preserve" height="60.976132718894014" width="70.2745998627842" class="icon-icon-0" data-fill-palette-color="accent" id="icon-0"><g fill="#ffcf31" data-fill-palette-color="accent"><path d="M89.633 72.435H79L67.251 84.184 56.062 72.435H10.414V18.173h79.219V72.435zM10.414 7.869c-5.692 0-10.305 4.614-10.305 10.305v54.261c0 5.69 4.613 10.306 10.305 10.306h41.23l8.145 8.552c1.913 2.012 4.561 3.162 7.335 3.196 0.042 0 0.085 0 0.127 0 2.73 0 5.352-1.084 7.284-3.017l8.733-8.731h6.363c5.689 0 10.305-4.615 10.305-10.306l0.002-54.261c0-5.691-4.612-10.305-10.305-10.305H10.414z" fill="#ffcf31" data-fill-palette-color="accent"></path><g fill="#ffcf31" data-fill-palette-color="accent"><path fill="#ffcf31" d="M38.547 40.832h0.014l0.012 0c2.979-0.08 5.059-2.064 5.059-4.825 0-2.833-2.139-4.889-5.084-4.889-2.862 0-5.021 2.074-5.021 4.825C33.526 38.775 35.638 40.832 38.547 40.832z" data-fill-palette-color="accent"></path><path fill="#ffcf31" d="M61.435 40.832h0.014l0.014 0c2.978-0.08 5.056-2.064 5.056-4.825 0-2.833-2.137-4.889-5.083-4.889-2.861 0-5.021 2.074-5.021 4.825C56.414 38.775 58.526 40.832 61.435 40.832z" data-fill-palette-color="accent"></path><path fill="#ffcf31" d="M79.31 41.996c-1.26-1.163-3.405-1.077-4.569 0.183-6.662 7.231-16.252 11.215-26.09 10.818-8.968-0.361-17.258-4.196-23.346-10.799-1.162-1.258-3.306-1.347-4.567-0.184-1.31 1.209-1.393 3.259-0.185 4.567 7.254 7.869 17.141 12.442 27.835 12.878 0.542 0.022 1.079 0.032 1.617 0.032 0.58 0 1.157-0.013 1.736-0.036C62.396 59 72.25 54.42 79.494 46.561c0.584-0.635 0.889-1.459 0.854-2.322C80.312 43.376 79.94 42.579 79.31 41.996z" data-fill-palette-color="accent"></path></g></g></svg></g></svg></g><g></g></svg></g></svg></g></svg></g></svg></g><defs></defs></svg><rect width="320" height="360" fill="none" stroke="none" visibility="hidden"></rect></g></svg></g></svg>